<svg xmlns="http://www.w3.org/2000/svg" width="1745.5" height="758.6" viewBox="0 0 1745.5 758.6"><g fill="none" stroke-linecap="round" stroke-linejoin="round" stroke-width="12.37"><path stroke="#ff00e6" d="M6.2 752.4c45.5-56.8 97.5-111.3 155.2-162.6 72.4-64.2 154.6-124.1 244.3-177.9 173.8-104.2 373.5-185.3 593.8-241.2S1455.6 86 1696.4 86c14.3 0 28.7.1 43 .3"/><path stroke="#9500ff" d="M87.2 752.4a1297.1 1297.1 0 0 1 118-119c69.5-61.6 148.5-119.1 234.8-170.9 168.3-100.9 362.1-179.6 576.1-233.8 216.3-54.9 445.1-82.7 680.3-82.7 14.3 0 28.7.1 43 .3"/><path stroke="#0040ff" d="M171.1 752.4q36.6-38.7 77.9-75.3c66.6-59.1 142.4-114.3 225.3-164 162.8-97.6 350.7-173.8 558.4-226.5 210.9-53.5 434.1-80.6 663.7-80.6 14.3 0 28.7.1 43 .3"/><path stroke="#2bff00" d="M258.4 752.4c11.2-10.7 22.6-21.2 34.4-31.7 63.6-56.5 136.2-109.3 215.8-157 157.3-94.3 339.3-168.1 540.8-219.2 205.4-52.1 423-78.5 647-78.5 14.3 0 28.7.1 43 .3"/><path stroke="#fff700" d="M350.2 752.4c57.4-49.4 122.2-95.8 192.7-138.1C694.8 523.2 870.7 452 1066 402.4c199.9-50.7 412.1-76.4 630.4-76.4 14.3 0 28.7.1 43 .3"/><path stroke="#ff8000" d="M447.8 752.4a1392.7 1392.7 0 0 1 129.4-87.5c146.4-87.8 316.4-156.6 505.4-204.5 194.5-49.4 401.1-74.4 613.8-74.4 14.3 0 28.7.1 43 .4"/><path stroke="red" d="M553.1 752.4c281-188 689.1-306.4 1143.3-306.4 14.4 0 28.7.1 43 .4"/></g><path fill="#78a2b3" stroke="#fff" stroke-linecap="round" stroke-linejoin="round" stroke-width="12" d="M995.6 6q3.1 36.3 7.4 73.3c1.1 13.6 2.5 27.5 4.3 41.6.5 4.8 1.1 9.3 1.7 13.5l-14.1 16.1a162.8 162.8 0 0 0-9.1 14.2 156.5 156.5 0 0 0-13.5 30.5q-23.4 75.4 42.6 151.8c-2 13.3-2.4 46.1 14 66.7a228.7 228.7 0 0 0 24.7 26.6l26.8-32.3q68.4 52 198.1 92.4 64.6 20.7 115.7 30.2c7.4 32.2 24.3 53.2 50.4 62.9 13.6 5.4 25.9 7.1 37 5.2q-1.9-27.2-19.5-49.4l-17.1-16c13-2.6 23.4-7.4 31.5-14.6s11.4-14.2 13.2-22.3c-25.9-17.8-49.2-23-69.9-15.8-10.3 3.8-17.9 9.2-22.9 16.2q-113.6-38.4-161.1-141.9-23.7-51.6-25.9-114.2t-58.1-98.6q-56-36-98.2-21.2l-16.4-33.8-17.1-33.1z"/><path fill="#fff" d="M1047.9 241c-1.4 2.7-1.3 5.6.1 8.7a9.9 9.9 0 0 0 5.3 6.9c2.7 1.3 5.8 1.3 9.2.1a10.4 10.4 0 0 0 6.3-5.5 13.2 13.2 0 0 0 .8-9 12.9 12.9 0 0 0-6.2-6.6 10.7 10.7 0 0 0-8.4-.5 11.8 11.8 0 0 0-7.1 5.9z"/></svg>